# xmcd
#
# Track frame offsets: 
#        150
#        20378
#        44336
#        65647
#        85125
#        96227
#        121254
#        140452
#        160532
#        179213
#        199808
#
# Disc length: 2852 seconds
#
# Revision: 1
# Processed by: cddbd v1.5.2PL0 Copyright (c) Steve Scherf et al.
# Submitted via: ExactAudioCopy v0.90b4
#
DISCID=960b220b
DTITLE=Christine Santelli - Season Of A Child
DYEAR=2002
DGENRE=Rock
TTITLE0=For A Man
TTITLE1=Survive
TTITLE2=Woman
TTITLE3=Season Of A Child
TTITLE4=Angel
TTITLE5=I Live My Life
TTITLE6=I Feel The Earth Move
TTITLE7=Happy
TTITLE8=The Best You Could
TTITLE9=What I Like
TTITLE10=Elvin
EXTD=
EXTT0=
EXTT1=
EXTT2=
EXTT3=
EXTT4=
EXTT5=
EXTT6=
EXTT7=
EXTT8=
EXTT9=
EXTT10=
PLAYORDER=
